<svg xmlns="http://www.w3.org/2000/svg" viewBox="0 0 512 512">
  <defs>
    <radialGradient id="bg" cx=".5" cy=".42" r=".75"><stop offset="0" stop-color="#14261b"/><stop offset="1" stop-color="#040607"/></radialGradient>
    <radialGradient id="glow" cx=".5" cy=".5" r=".5"><stop offset="0" stop-color="#a3f53a" stop-opacity=".35"/><stop offset="1" stop-color="#a3f53a" stop-opacity="0"/></radialGradient>
  </defs>
  <rect width="512" height="512" rx="108" fill="url(#bg)"/>
  <circle cx="256" cy="256" r="200" fill="url(#glow)"/>
  <g transform="translate(64 64) scale(6)" fill="none" stroke="#a3f53a" stroke-linecap="round" stroke-linejoin="round">
    <path d="M32 3 L57 17.5 L57 46.5 L32 61 L7 46.5 L7 17.5 Z" stroke-width="2.4"/>
    <g stroke-width="2.6"><path d="M32 26 V9"/><path d="M27 25 C19 21 20 12 32 9"/><path d="M37 25 C45 21 44 12 32 9"/><path d="M32 38 V55"/><path d="M27 39 C19 43 20 52 32 55"/><path d="M37 39 C45 43 44 52 32 55"/><path d="M25.5 26 H38.5"/><path d="M25.5 38 H38.5"/></g>
    <path d="M7 32 H15 M49 32 H57" stroke-width="2.4"/>
    <circle cx="32" cy="32" r="4.4" fill="#ffffff" stroke="none"/>
  </g>
</svg>
